<svg width="48" height="48" viewBox="0 0 48 48" fill="none" xmlns="http://www.w3.org/2000/svg">
  <rect x="4" y="10" width="40" height="30" rx="1" fill="#7C5E48" stroke="#472D2D" stroke-width="2"/>
  <rect x="6" y="13" width="5" height="24" rx="1" fill="#F5F1E9" stroke="#472D2D"/>
  <rect x="12" y="13" width="8" height="24" rx="1" fill="#8B2F1C" stroke="#472D2D"/>
  <rect x="21" y="13" width="6" height="24" rx="1" fill="#A68A64" stroke="#472D2D"/>
  <rect x="28" y="13" width="7" height="24" rx="1" fill="#F5F1E9" stroke="#472D2D"/>
  <rect x="36" y="13" width="6" height="24" rx="1" fill="#8B2F1C" stroke="#472D2D"/>
  <line x1="8" y1="17" x2="9" y2="17" stroke="#472D2D" stroke-width="0.5"/>
  <line x1="8" y1="20" x2="9" y2="20" stroke="#472D2D" stroke-width="0.5"/>
  <line x1="8" y1="23" x2="9" y2="23" stroke="#472D2D" stroke-width="0.5"/>
  <line x1="16" y1="17" x2="17" y2="17" stroke="#F5F1E9" stroke-width="0.5"/>
  <line x1="16" y1="20" x2="17" y2="20" stroke="#F5F1E9" stroke-width="0.5"/>
  <line x1="16" y1="23" x2="17" y2="23" stroke="#F5F1E9" stroke-width="0.5"/>
  <line x1="24" y1="17" x2="25" y2="17" stroke="#472D2D" stroke-width="0.5"/>
  <line x1="24" y1="20" x2="25" y2="20" stroke="#472D2D" stroke-width="0.5"/>
  <line x1="32" y1="17" x2="33" y2="17" stroke="#472D2D" stroke-width="0.5"/>
  <line x1="32" y1="20" x2="33" y2="20" stroke="#472D2D" stroke-width="0.5"/>
  <line x1="32" y1="23" x2="33" y2="23" stroke="#472D2D" stroke-width="0.5"/>
  <line x1="39" y1="17" x2="40" y2="17" stroke="#F5F1E9" stroke-width="0.5"/>
  <line x1="39" y1="20" x2="40" y2="20" stroke="#F5F1E9" stroke-width="0.5"/>
  <line x1="39" y1="23" x2="40" y2="23" stroke="#F5F1E9" stroke-width="0.5"/>
</svg>
